<?xml version="1.0" encoding="UTF-8"?>
<svg xmlns="http://www.w3.org/2000/svg" xmlns:xlink="http://www.w3.org/1999/xlink" width="16pt" height="16pt" viewBox="0 0 16 16" version="1.1">
<g id="surface12641">
<path style=" stroke:none;fill-rule:evenodd;fill:rgb(100%,100%,100%);fill-opacity:1;" d="M 13.6875 1.996094 L 13.742188 2.140625 L 13.765625 2.21875 L 13.792969 2.289062 L 13.863281 2.511719 L 13.90625 2.65625 L 13.925781 2.730469 L 13.984375 2.941406 L 14.046875 3.222656 L 14.058594 3.292969 L 14.074219 3.359375 L 14.109375 3.558594 L 14.136719 3.753906 L 14.144531 3.820312 L 14.160156 3.945312 L 14.167969 4.003906 L 14.175781 4.066406 L 14.179688 4.125 L 14.191406 4.242188 L 14.203125 4.410156 L 14.207031 4.519531 L 14.207031 4.570312 L 14.210938 4.621094 L 14.210938 4.949219 L 14.207031 4.992188 L 14.207031 5.074219 L 14.203125 5.109375 L 14.199219 5.183594 L 14.195312 5.25 L 14.1875 5.3125 L 14.175781 5.394531 L 14.167969 5.441406 L 14.164062 5.460938 L 14.234375 5.539062 L 14.265625 5.578125 L 14.300781 5.613281 L 14.363281 5.691406 L 14.398438 5.730469 L 14.460938 5.8125 L 14.488281 5.851562 L 14.519531 5.890625 L 14.550781 5.933594 L 14.578125 5.972656 L 14.609375 6.015625 L 14.636719 6.058594 L 14.664062 6.097656 L 14.746094 6.226562 L 14.769531 6.269531 L 14.796875 6.3125 L 14.820312 6.359375 L 14.84375 6.402344 L 14.890625 6.492188 L 14.914062 6.535156 L 14.9375 6.582031 L 14.957031 6.628906 L 14.980469 6.671875 L 15 6.722656 L 15.019531 6.765625 L 15.042969 6.816406 L 15.058594 6.863281 L 15.078125 6.910156 L 15.097656 6.960938 L 15.164062 7.160156 L 15.175781 7.207031 L 15.191406 7.261719 L 15.207031 7.3125 L 15.21875 7.363281 L 15.234375 7.417969 L 15.257812 7.519531 L 15.265625 7.574219 L 15.289062 7.683594 L 15.304688 7.792969 L 15.3125 7.851562 L 15.328125 7.960938 L 15.332031 8.019531 L 15.339844 8.078125 L 15.355469 8.3125 L 15.359375 8.375 L 15.359375 8.757812 L 15.355469 8.886719 L 15.351562 8.953125 L 15.351562 9.015625 L 15.335938 9.265625 L 15.328125 9.328125 L 15.324219 9.390625 L 15.320312 9.449219 L 15.3125 9.511719 L 15.296875 9.628906 L 15.292969 9.6875 L 15.277344 9.804688 L 15.269531 9.859375 L 15.261719 9.917969 L 15.25 9.972656 L 15.242188 10.03125 L 15.222656 10.140625 L 15.210938 10.195312 L 15.199219 10.246094 L 15.175781 10.355469 L 15.152344 10.457031 L 15.128906 10.5625 L 15.113281 10.613281 L 15.085938 10.710938 L 15.074219 10.761719 L 15.027344 10.90625 L 15.011719 10.953125 L 14.996094 11.003906 L 14.964844 11.09375 L 14.945312 11.140625 L 14.929688 11.1875 L 14.914062 11.230469 L 14.894531 11.277344 L 14.839844 11.40625 L 14.78125 11.535156 L 14.722656 11.660156 L 14.703125 11.699219 L 14.660156 11.777344 L 14.640625 11.816406 L 14.617188 11.859375 L 14.597656 11.894531 L 14.574219 11.933594 L 14.527344 12.007812 L 14.507812 12.046875 L 14.4375 12.152344 L 14.414062 12.191406 L 14.390625 12.226562 L 14.367188 12.257812 L 14.339844 12.292969 L 14.316406 12.328125 L 14.292969 12.359375 L 14.265625 12.394531 L 14.242188 12.425781 L 14.21875 12.460938 L 14.191406 12.492188 L 14.167969 12.523438 L 14.085938 12.617188 L 14.0625 12.648438 L 14.035156 12.675781 L 14.007812 12.707031 L 13.980469 12.734375 L 13.898438 12.824219 L 13.816406 12.90625 L 13.789062 12.929688 L 13.757812 12.957031 L 13.703125 13.011719 L 13.671875 13.035156 L 13.644531 13.0625 L 13.617188 13.085938 L 13.585938 13.109375 L 13.558594 13.136719 L 13.527344 13.160156 L 13.5 13.183594 L 13.4375 13.230469 L 13.410156 13.253906 L 13.378906 13.277344 L 13.351562 13.296875 L 13.320312 13.320312 L 13.230469 13.386719 L 12.949219 13.5625 L 12.917969 13.578125 L 12.886719 13.597656 L 12.792969 13.652344 L 12.761719 13.667969 L 12.667969 13.71875 L 12.636719 13.734375 L 12.570312 13.765625 L 12.507812 13.796875 L 12.378906 13.851562 L 12.253906 13.90625 L 12.1875 13.929688 L 12.125 13.957031 L 12.058594 13.980469 L 11.933594 14.023438 L 11.867188 14.046875 L 11.679688 14.105469 L 11.554688 14.140625 L 11.304688 14.203125 L 11.246094 14.214844 L 11.183594 14.230469 L 11.125 14.242188 L 11.0625 14.253906 L 10.945312 14.273438 L 10.828125 14.296875 L 10.769531 14.304688 L 10.714844 14.3125 L 10.65625 14.320312 L 10.601562 14.328125 L 10.492188 14.339844 L 10.4375 14.347656 L 10.386719 14.351562 L 10.332031 14.359375 L 10.179688 14.371094 L 10.132812 14.375 L 10.082031 14.378906 L 10.035156 14.382812 L 9.988281 14.382812 L 9.898438 14.386719 L 9.8125 14.390625 L 9.730469 14.394531 L 9.652344 14.394531 L 9.578125 14.398438 L 6.421875 14.398438 L 6.347656 14.394531 L 6.269531 14.394531 L 6.1875 14.390625 L 6.101562 14.386719 L 6.011719 14.382812 L 5.964844 14.382812 L 5.917969 14.378906 L 5.867188 14.375 L 5.820312 14.371094 L 5.667969 14.359375 L 5.613281 14.351562 L 5.5625 14.347656 L 5.507812 14.339844 L 5.398438 14.328125 L 5.34375 14.320312 L 5.285156 14.3125 L 5.230469 14.304688 L 5.171875 14.296875 L 5.054688 14.273438 L 4.9375 14.253906 L 4.875 14.242188 L 4.816406 14.230469 L 4.753906 14.214844 L 4.695312 14.203125 L 4.445312 14.140625 L 4.320312 14.105469 L 4.132812 14.046875 L 4.066406 14.023438 L 3.941406 13.980469 L 3.875 13.957031 L 3.8125 13.929688 L 3.746094 13.90625 L 3.621094 13.851562 L 3.492188 13.796875 L 3.429688 13.765625 L 3.363281 13.734375 L 3.332031 13.71875 L 3.238281 13.667969 L 3.207031 13.652344 L 3.113281 13.597656 L 3.082031 13.578125 L 3.050781 13.5625 L 2.769531 13.386719 L 2.679688 13.320312 L 2.648438 13.296875 L 2.621094 13.277344 L 2.589844 13.253906 L 2.5625 13.230469 L 2.5 13.183594 L 2.472656 13.160156 L 2.441406 13.136719 L 2.414062 13.109375 L 2.382812 13.085938 L 2.355469 13.0625 L 2.328125 13.035156 L 2.296875 13.011719 L 2.242188 12.957031 L 2.210938 12.929688 L 2.183594 12.90625 L 2.101562 12.824219 L 2.019531 12.734375 L 1.992188 12.707031 L 1.964844 12.675781 L 1.9375 12.648438 L 1.914062 12.617188 L 1.832031 12.523438 L 1.808594 12.492188 L 1.78125 12.460938 L 1.757812 12.425781 L 1.734375 12.394531 L 1.707031 12.359375 L 1.683594 12.328125 L 1.660156 12.292969 L 1.632812 12.257812 L 1.609375 12.226562 L 1.585938 12.191406 L 1.5625 12.152344 L 1.492188 12.046875 L 1.472656 12.007812 L 1.425781 11.933594 L 1.402344 11.894531 L 1.382812 11.859375 L 1.359375 11.816406 L 1.339844 11.777344 L 1.296875 11.699219 L 1.277344 11.660156 L 1.21875 11.535156 L 1.160156 11.40625 L 1.105469 11.277344 L 1.085938 11.230469 L 1.070312 11.1875 L 1.054688 11.140625 L 1.035156 11.09375 L 1.003906 11.003906 L 0.988281 10.953125 L 0.972656 10.90625 L 0.925781 10.761719 L 0.914062 10.710938 L 0.886719 10.613281 L 0.871094 10.5625 L 0.847656 10.457031 L 0.824219 10.355469 L 0.800781 10.246094 L 0.789062 10.195312 L 0.777344 10.140625 L 0.757812 10.03125 L 0.75 9.972656 L 0.738281 9.917969 L 0.730469 9.859375 L 0.722656 9.804688 L 0.707031 9.6875 L 0.703125 9.628906 L 0.6875 9.511719 L 0.679688 9.449219 L 0.675781 9.390625 L 0.671875 9.328125 L 0.664062 9.265625 L 0.648438 9.015625 L 0.648438 8.953125 L 0.644531 8.886719 L 0.640625 8.757812 L 0.640625 8.375 L 0.644531 8.3125 L 0.660156 8.078125 L 0.667969 8.019531 L 0.671875 7.960938 L 0.6875 7.851562 L 0.695312 7.792969 L 0.710938 7.683594 L 0.734375 7.574219 L 0.742188 7.519531 L 0.765625 7.417969 L 0.78125 7.363281 L 0.792969 7.3125 L 0.808594 7.261719 L 0.824219 7.207031 L 0.835938 7.160156 L 0.902344 6.960938 L 0.921875 6.910156 L 0.941406 6.863281 L 0.957031 6.816406 L 0.980469 6.765625 L 1 6.722656 L 1.019531 6.671875 L 1.042969 6.628906 L 1.0625 6.582031 L 1.085938 6.535156 L 1.109375 6.492188 L 1.15625 6.402344 L 1.179688 6.359375 L 1.203125 6.3125 L 1.230469 6.269531 L 1.253906 6.226562 L 1.335938 6.097656 L 1.363281 6.058594 L 1.390625 6.015625 L 1.421875 5.972656 L 1.449219 5.933594 L 1.480469 5.890625 L 1.511719 5.851562 L 1.539062 5.8125 L 1.601562 5.730469 L 1.636719 5.691406 L 1.699219 5.613281 L 1.734375 5.578125 L 1.765625 5.539062 L 1.835938 5.460938 L 1.824219 5.390625 L 1.820312 5.363281 L 1.816406 5.332031 L 1.8125 5.304688 L 1.808594 5.273438 L 1.804688 5.238281 L 1.800781 5.207031 L 1.796875 5.171875 L 1.796875 5.136719 L 1.792969 5.097656 L 1.792969 5.058594 L 1.789062 5.019531 L 1.789062 4.976562 L 1.785156 4.933594 L 1.785156 4.65625 L 1.789062 4.605469 L 1.789062 4.554688 L 1.792969 4.503906 L 1.792969 4.449219 L 1.796875 4.394531 L 1.796875 4.339844 L 1.800781 4.285156 L 1.8125 4.171875 L 1.816406 4.109375 L 1.824219 4.050781 L 1.828125 3.992188 L 1.835938 3.929688 L 1.84375 3.871094 L 1.851562 3.808594 L 1.871094 3.679688 L 1.878906 3.617188 L 1.925781 3.351562 L 1.953125 3.214844 L 1.96875 3.148438 L 2.015625 2.9375 L 2.054688 2.796875 L 2.09375 2.652344 L 2.113281 2.582031 L 2.160156 2.4375 L 2.183594 2.363281 L 2.234375 2.214844 L 2.257812 2.140625 L 2.3125 1.996094 L 2.34375 1.921875 L 2.359375 1.921875 L 2.382812 1.925781 L 2.410156 1.929688 L 2.445312 1.9375 L 2.492188 1.945312 L 2.542969 1.953125 L 2.636719 1.976562 L 2.707031 1.992188 L 2.746094 2.003906 L 2.785156 2.011719 L 2.871094 2.035156 L 2.917969 2.050781 L 3.011719 2.078125 L 3.0625 2.09375 L 3.117188 2.109375 L 3.28125 2.167969 L 3.339844 2.1875 L 3.402344 2.207031 L 3.464844 2.234375 L 3.527344 2.257812 L 3.59375 2.28125 L 3.726562 2.335938 L 3.796875 2.363281 L 3.867188 2.394531 L 3.941406 2.425781 L 4.089844 2.496094 L 4.246094 2.566406 L 4.328125 2.605469 L 4.40625 2.648438 L 4.574219 2.730469 L 4.832031 2.871094 L 4.921875 2.921875 L 5.015625 2.972656 L 5.105469 3.023438 L 5.199219 3.078125 L 5.386719 3.195312 L 5.484375 3.253906 L 5.582031 3.316406 L 5.632812 3.347656 L 5.679688 3.378906 L 5.730469 3.414062 L 5.832031 3.480469 L 5.882812 3.515625 L 5.933594 3.546875 L 5.984375 3.582031 L 6.027344 3.570312 L 6.121094 3.546875 L 6.171875 3.539062 L 6.222656 3.527344 L 6.273438 3.519531 L 6.328125 3.507812 L 6.382812 3.5 L 6.617188 3.46875 L 6.742188 3.453125 L 6.808594 3.445312 L 6.871094 3.441406 L 6.9375 3.433594 L 7.007812 3.429688 L 7.074219 3.421875 L 7.140625 3.421875 L 7.210938 3.414062 L 7.351562 3.40625 L 7.421875 3.40625 L 7.492188 3.402344 L 7.566406 3.398438 L 7.636719 3.398438 L 7.78125 3.394531 L 7.925781 3.394531 L 8 3.390625 L 8.074219 3.394531 L 8.21875 3.394531 L 8.363281 3.398438 L 8.433594 3.398438 L 8.507812 3.402344 L 8.578125 3.40625 L 8.648438 3.40625 L 8.789062 3.414062 L 8.859375 3.421875 L 8.925781 3.421875 L 8.992188 3.429688 L 9.0625 3.433594 L 9.128906 3.441406 L 9.191406 3.445312 L 9.257812 3.453125 L 9.382812 3.46875 L 9.617188 3.5 L 9.671875 3.507812 L 9.726562 3.519531 L 9.777344 3.527344 L 9.878906 3.550781 L 9.925781 3.558594 L 9.972656 3.570312 L 10.015625 3.582031 L 10.066406 3.546875 L 10.117188 3.515625 L 10.167969 3.480469 L 10.269531 3.414062 L 10.320312 3.378906 L 10.367188 3.347656 L 10.417969 3.316406 L 10.515625 3.253906 L 10.609375 3.195312 L 10.707031 3.136719 L 10.800781 3.078125 L 10.894531 3.023438 L 10.984375 2.972656 L 11.078125 2.921875 L 11.167969 2.871094 L 11.425781 2.730469 L 11.59375 2.648438 L 11.671875 2.605469 L 11.753906 2.570312 L 11.832031 2.53125 L 11.910156 2.496094 L 12.058594 2.425781 L 12.132812 2.394531 L 12.203125 2.363281 L 12.273438 2.335938 L 12.40625 2.28125 L 12.472656 2.257812 L 12.535156 2.234375 L 12.597656 2.207031 L 12.660156 2.1875 L 12.71875 2.167969 L 12.882812 2.109375 L 12.9375 2.09375 L 12.988281 2.078125 L 13.035156 2.0625 L 13.128906 2.035156 L 13.214844 2.011719 L 13.253906 2.003906 L 13.292969 1.992188 L 13.363281 1.976562 L 13.457031 1.953125 L 13.507812 1.945312 L 13.554688 1.9375 L 13.589844 1.929688 L 13.621094 1.925781 L 13.640625 1.921875 L 13.65625 1.921875 Z M 5.230469 7.953125 L 5.160156 7.953125 L 5.089844 7.957031 L 5.019531 7.957031 L 4.949219 7.960938 L 4.816406 7.972656 L 4.78125 7.976562 L 4.75 7.980469 L 4.714844 7.984375 L 4.648438 7.992188 L 4.554688 8.003906 L 4.519531 8.011719 L 4.488281 8.015625 L 4.394531 8.035156 L 4.363281 8.042969 L 4.335938 8.046875 L 4.304688 8.058594 L 4.242188 8.074219 L 4.214844 8.082031 L 4.183594 8.089844 L 4.15625 8.101562 L 4.125 8.109375 L 4.097656 8.117188 L 4.070312 8.128906 L 4.039062 8.140625 L 3.984375 8.164062 L 3.953125 8.175781 L 3.898438 8.199219 L 3.875 8.210938 L 3.847656 8.226562 L 3.820312 8.238281 L 3.714844 8.300781 L 3.691406 8.316406 L 3.664062 8.332031 L 3.640625 8.351562 L 3.613281 8.367188 L 3.589844 8.386719 L 3.566406 8.402344 L 3.542969 8.421875 L 3.46875 8.484375 L 3.449219 8.503906 L 3.421875 8.527344 L 3.390625 8.554688 L 3.339844 8.605469 L 3.289062 8.660156 L 3.242188 8.710938 L 3.171875 8.792969 L 3.152344 8.820312 L 3.085938 8.902344 L 3.027344 8.984375 L 3.011719 9.011719 L 2.976562 9.070312 L 2.957031 9.097656 L 2.90625 9.183594 L 2.890625 9.214844 L 2.875 9.242188 L 2.863281 9.273438 L 2.847656 9.300781 L 2.832031 9.332031 L 2.820312 9.359375 L 2.785156 9.453125 L 2.769531 9.480469 L 2.761719 9.511719 L 2.738281 9.574219 L 2.730469 9.601562 L 2.71875 9.632812 L 2.671875 9.820312 L 2.652344 9.914062 L 2.648438 9.945312 L 2.640625 9.976562 L 2.636719 10.011719 L 2.625 10.105469 L 2.621094 10.140625 L 2.621094 10.171875 L 2.613281 10.234375 L 2.613281 10.300781 L 2.609375 10.332031 L 2.609375 10.46875 L 2.613281 10.535156 L 2.613281 10.601562 L 2.617188 10.667969 L 2.621094 10.730469 L 2.625 10.796875 L 2.632812 10.859375 L 2.636719 10.921875 L 2.644531 10.980469 L 2.652344 11.042969 L 2.660156 11.101562 L 2.683594 11.21875 L 2.691406 11.273438 L 2.703125 11.328125 L 2.71875 11.386719 L 2.726562 11.414062 L 2.730469 11.441406 L 2.738281 11.464844 L 2.769531 11.574219 L 2.777344 11.597656 L 2.785156 11.625 L 2.792969 11.648438 L 2.800781 11.675781 L 2.8125 11.699219 L 2.820312 11.726562 L 2.828125 11.75 L 2.839844 11.773438 L 2.847656 11.796875 L 2.859375 11.824219 L 2.878906 11.871094 L 2.890625 11.894531 L 2.898438 11.917969 L 2.910156 11.941406 L 2.921875 11.960938 L 2.945312 12.007812 L 2.953125 12.03125 L 2.96875 12.050781 L 2.992188 12.097656 L 3.054688 12.203125 L 3.066406 12.222656 L 3.078125 12.246094 L 3.148438 12.34375 L 3.164062 12.363281 L 3.175781 12.382812 L 3.222656 12.441406 L 3.253906 12.476562 L 3.285156 12.515625 L 3.347656 12.585938 L 3.449219 12.6875 L 3.554688 12.78125 L 3.667969 12.871094 L 3.707031 12.902344 L 3.828125 12.984375 L 3.867188 13.011719 L 3.910156 13.035156 L 3.996094 13.085938 L 4.082031 13.132812 L 4.171875 13.179688 L 4.21875 13.203125 L 4.3125 13.242188 L 4.40625 13.285156 L 4.457031 13.300781 L 4.503906 13.324219 L 4.65625 13.375 L 4.707031 13.390625 L 4.757812 13.410156 L 4.808594 13.425781 L 4.914062 13.453125 L 5.023438 13.484375 L 5.078125 13.496094 L 5.132812 13.511719 L 5.296875 13.546875 L 5.414062 13.570312 L 5.46875 13.582031 L 5.585938 13.601562 L 5.644531 13.613281 L 5.765625 13.628906 L 5.824219 13.640625 L 5.886719 13.648438 L 5.945312 13.65625 L 6.070312 13.671875 L 6.128906 13.675781 L 6.191406 13.683594 L 6.257812 13.691406 L 6.320312 13.695312 L 6.382812 13.703125 L 6.511719 13.710938 L 6.574219 13.714844 L 6.640625 13.722656 L 6.703125 13.726562 L 6.769531 13.730469 L 6.902344 13.734375 L 7.101562 13.746094 L 7.171875 13.746094 L 7.304688 13.75 L 7.578125 13.757812 L 7.71875 13.757812 L 7.859375 13.761719 L 8.1875 13.761719 L 8.328125 13.757812 L 8.464844 13.757812 L 8.875 13.746094 L 8.941406 13.746094 L 9.140625 13.734375 L 9.207031 13.734375 L 9.273438 13.730469 L 9.402344 13.722656 L 9.46875 13.714844 L 9.660156 13.703125 L 9.722656 13.695312 L 9.785156 13.691406 L 9.910156 13.675781 L 9.96875 13.671875 L 10.09375 13.65625 L 10.152344 13.648438 L 10.273438 13.628906 L 10.390625 13.613281 L 10.449219 13.601562 L 10.507812 13.59375 L 10.566406 13.582031 L 10.621094 13.570312 L 10.679688 13.558594 L 10.898438 13.511719 L 10.953125 13.496094 L 11.0625 13.46875 L 11.21875 13.425781 L 11.324219 13.390625 L 11.472656 13.339844 L 11.519531 13.324219 L 11.570312 13.300781 L 11.617188 13.285156 L 11.664062 13.265625 L 11.710938 13.242188 L 11.804688 13.203125 L 11.894531 13.15625 L 12.023438 13.085938 L 12.109375 13.035156 L 12.148438 13.011719 L 12.191406 12.984375 L 12.308594 12.902344 L 12.347656 12.871094 L 12.421875 12.8125 L 12.457031 12.78125 L 12.496094 12.75 L 12.53125 12.71875 L 12.597656 12.652344 L 12.632812 12.621094 L 12.726562 12.515625 L 12.757812 12.476562 L 12.789062 12.441406 L 12.816406 12.402344 L 12.847656 12.363281 L 12.914062 12.265625 L 12.925781 12.246094 L 12.941406 12.222656 L 12.953125 12.203125 L 13.015625 12.097656 L 13.039062 12.050781 L 13.050781 12.03125 L 13.074219 11.984375 L 13.09375 11.941406 L 13.105469 11.917969 L 13.113281 11.894531 L 13.136719 11.847656 L 13.144531 11.824219 L 13.15625 11.796875 L 13.171875 11.75 L 13.183594 11.726562 L 13.191406 11.699219 L 13.203125 11.675781 L 13.207031 11.648438 L 13.21875 11.625 L 13.226562 11.597656 L 13.234375 11.574219 L 13.257812 11.492188 L 13.269531 11.441406 L 13.285156 11.386719 L 13.296875 11.328125 L 13.320312 11.21875 L 13.328125 11.160156 L 13.339844 11.101562 L 13.347656 11.042969 L 13.355469 10.980469 L 13.363281 10.921875 L 13.375 10.796875 L 13.378906 10.730469 L 13.386719 10.601562 L 13.390625 10.535156 L 13.390625 10.300781 L 13.386719 10.265625 L 13.386719 10.234375 L 13.382812 10.203125 L 13.382812 10.171875 L 13.378906 10.140625 L 13.367188 10.042969 L 13.363281 10.011719 L 13.359375 9.976562 L 13.355469 9.945312 L 13.347656 9.914062 L 13.34375 9.882812 L 13.328125 9.820312 L 13.324219 9.789062 L 13.316406 9.757812 L 13.304688 9.726562 L 13.28125 9.632812 L 13.269531 9.601562 L 13.261719 9.574219 L 13.238281 9.511719 L 13.21875 9.453125 L 13.179688 9.359375 L 13.152344 9.300781 L 13.140625 9.273438 L 13.125 9.242188 L 13.109375 9.214844 L 13.042969 9.097656 L 13.007812 9.042969 L 12.988281 9.011719 L 12.953125 8.957031 L 12.914062 8.902344 L 12.890625 8.875 L 12.871094 8.847656 L 12.847656 8.820312 L 12.828125 8.792969 L 12.734375 8.683594 L 12.660156 8.605469 L 12.609375 8.554688 L 12.578125 8.527344 L 12.554688 8.503906 L 12.53125 8.484375 L 12.507812 8.460938 L 12.484375 8.441406 L 12.457031 8.421875 L 12.410156 8.386719 L 12.335938 8.332031 L 12.3125 8.316406 L 12.285156 8.300781 L 12.261719 8.285156 L 12.179688 8.238281 L 12.152344 8.226562 L 12.128906 8.210938 L 12.015625 8.164062 L 11.933594 8.128906 L 11.902344 8.117188 L 11.875 8.109375 L 11.84375 8.101562 L 11.816406 8.089844 L 11.757812 8.074219 L 11.695312 8.058594 L 11.667969 8.046875 L 11.636719 8.042969 L 11.605469 8.035156 L 11.511719 8.015625 L 11.449219 8.007812 L 11.351562 7.992188 L 11.253906 7.980469 L 11.183594 7.972656 L 11.152344 7.96875 L 11.117188 7.96875 L 11.082031 7.964844 L 11.050781 7.960938 L 10.980469 7.957031 L 10.914062 7.957031 L 10.839844 7.953125 L 10.554688 7.953125 L 10.480469 7.957031 L 10.40625 7.957031 L 10.257812 7.964844 L 10.105469 7.972656 L 9.871094 7.984375 L 9.390625 8.019531 L 9.222656 8.03125 L 9.058594 8.042969 L 8.972656 8.046875 L 8.890625 8.050781 L 8.71875 8.058594 L 8.632812 8.066406 L 8.546875 8.070312 L 8.460938 8.070312 L 8.375 8.074219 L 8.285156 8.078125 L 7.714844 8.078125 L 7.625 8.074219 L 7.453125 8.070312 L 7.367188 8.066406 L 7.28125 8.058594 L 7.109375 8.050781 L 6.945312 8.042969 L 6.777344 8.03125 L 6.613281 8.019531 L 6.289062 7.996094 L 6.128906 7.984375 L 6.050781 7.980469 L 5.976562 7.976562 L 5.742188 7.964844 L 5.59375 7.957031 L 5.519531 7.957031 L 5.445312 7.953125 Z M 10.570312 9.207031 L 10.597656 9.210938 L 10.625 9.210938 L 10.675781 9.21875 L 10.703125 9.222656 L 10.726562 9.230469 L 10.753906 9.234375 L 10.777344 9.246094 L 10.804688 9.253906 L 10.828125 9.261719 L 10.875 9.285156 L 10.902344 9.296875 L 10.949219 9.320312 L 10.972656 9.335938 L 11.015625 9.363281 L 11.039062 9.382812 L 11.0625 9.398438 L 11.105469 9.433594 L 11.164062 9.492188 L 11.203125 9.535156 L 11.261719 9.605469 L 11.277344 9.628906 L 11.296875 9.652344 L 11.3125 9.679688 L 11.328125 9.703125 L 11.390625 9.8125 L 11.433594 9.898438 L 11.492188 10.054688 L 11.5 10.085938 L 11.511719 10.117188 L 11.519531 10.152344 L 11.527344 10.183594 L 11.542969 10.253906 L 11.554688 10.324219 L 11.5625 10.355469 L 11.570312 10.425781 L 11.574219 10.464844 L 11.578125 10.535156 L 11.582031 10.574219 L 11.582031 10.722656 L 11.578125 10.757812 L 11.574219 10.828125 L 11.570312 10.867188 L 11.5625 10.9375 L 11.550781 11.007812 L 11.542969 11.042969 L 11.527344 11.109375 L 11.519531 11.140625 L 11.511719 11.175781 L 11.492188 11.238281 L 11.433594 11.394531 L 11.417969 11.421875 L 11.40625 11.453125 L 11.328125 11.589844 L 11.3125 11.613281 L 11.296875 11.640625 L 11.277344 11.664062 L 11.261719 11.6875 L 11.183594 11.78125 L 11.125 11.839844 L 11.082031 11.878906 L 11.0625 11.894531 L 11.039062 11.914062 L 10.992188 11.945312 L 10.972656 11.960938 L 10.949219 11.972656 L 10.925781 11.988281 L 10.902344 12 L 10.875 12.011719 L 10.851562 12.023438 L 10.828125 12.03125 L 10.804688 12.042969 L 10.777344 12.050781 L 10.753906 12.058594 L 10.726562 12.0625 L 10.703125 12.070312 L 10.675781 12.074219 L 10.625 12.082031 L 10.597656 12.085938 L 10.488281 12.085938 L 10.464844 12.082031 L 10.410156 12.074219 L 10.386719 12.070312 L 10.359375 12.0625 L 10.332031 12.058594 L 10.308594 12.050781 L 10.257812 12.03125 L 10.234375 12.023438 L 10.210938 12.011719 L 10.183594 12 L 10.164062 11.988281 L 10.113281 11.960938 L 10.09375 11.945312 L 10.046875 11.914062 L 10.023438 11.894531 L 10.003906 11.878906 L 9.984375 11.859375 L 9.960938 11.839844 L 9.902344 11.78125 L 9.824219 11.6875 L 9.789062 11.640625 L 9.773438 11.613281 L 9.757812 11.589844 L 9.679688 11.453125 L 9.667969 11.421875 L 9.652344 11.394531 L 9.59375 11.238281 L 9.574219 11.175781 L 9.566406 11.140625 L 9.558594 11.109375 L 9.542969 11.042969 L 9.535156 11.007812 L 9.523438 10.9375 L 9.519531 10.902344 L 9.511719 10.828125 L 9.503906 10.722656 L 9.503906 10.574219 L 9.511719 10.464844 L 9.515625 10.425781 L 9.523438 10.355469 L 9.53125 10.324219 L 9.542969 10.253906 L 9.558594 10.183594 L 9.566406 10.152344 L 9.574219 10.117188 L 9.585938 10.085938 L 9.59375 10.054688 L 9.652344 9.898438 L 9.695312 9.8125 L 9.757812 9.703125 L 9.773438 9.679688 L 9.789062 9.652344 L 9.808594 9.628906 L 9.824219 9.605469 L 9.882812 9.535156 L 9.921875 9.492188 L 9.960938 9.453125 L 9.984375 9.433594 L 10.023438 9.398438 L 10.046875 9.382812 L 10.070312 9.363281 L 10.113281 9.335938 L 10.164062 9.308594 L 10.183594 9.296875 L 10.210938 9.285156 L 10.234375 9.273438 L 10.285156 9.253906 L 10.308594 9.246094 L 10.332031 9.234375 L 10.359375 9.230469 L 10.386719 9.222656 L 10.410156 9.21875 L 10.464844 9.210938 L 10.488281 9.210938 L 10.515625 9.207031 Z M 5.484375 9.207031 L 5.511719 9.210938 L 5.535156 9.210938 L 5.589844 9.21875 L 5.613281 9.222656 L 5.640625 9.230469 L 5.667969 9.234375 L 5.691406 9.246094 L 5.714844 9.253906 L 5.765625 9.273438 L 5.789062 9.285156 L 5.816406 9.296875 L 5.835938 9.308594 L 5.886719 9.335938 L 5.929688 9.363281 L 5.953125 9.382812 L 5.976562 9.398438 L 6.015625 9.433594 L 6.039062 9.453125 L 6.078125 9.492188 L 6.117188 9.535156 L 6.175781 9.605469 L 6.191406 9.628906 L 6.210938 9.652344 L 6.226562 9.679688 L 6.242188 9.703125 L 6.304688 9.8125 L 6.347656 9.898438 L 6.40625 10.054688 L 6.414062 10.085938 L 6.425781 10.117188 L 6.433594 10.152344 L 6.441406 10.183594 L 6.457031 10.253906 L 6.46875 10.324219 L 6.476562 10.355469 L 6.484375 10.425781 L 6.488281 10.464844 L 6.496094 10.574219 L 6.496094 10.722656 L 6.488281 10.828125 L 6.480469 10.902344 L 6.476562 10.9375 L 6.464844 11.007812 L 6.457031 11.042969 L 6.441406 11.109375 L 6.433594 11.140625 L 6.425781 11.175781 L 6.40625 11.238281 L 6.347656 11.394531 L 6.332031 11.421875 L 6.320312 11.453125 L 6.273438 11.535156 L 6.261719 11.5625 L 6.242188 11.589844 L 6.226562 11.613281 L 6.210938 11.640625 L 6.175781 11.6875 L 6.097656 11.78125 L 6.039062 11.839844 L 5.996094 11.878906 L 5.976562 11.894531 L 5.953125 11.914062 L 5.90625 11.945312 L 5.886719 11.960938 L 5.835938 11.988281 L 5.816406 12 L 5.789062 12.011719 L 5.765625 12.023438 L 5.742188 12.03125 L 5.691406 12.050781 L 5.667969 12.058594 L 5.640625 12.0625 L 5.613281 12.070312 L 5.589844 12.074219 L 5.535156 12.082031 L 5.511719 12.085938 L 5.402344 12.085938 L 5.375 12.082031 L 5.324219 12.074219 L 5.296875 12.070312 L 5.273438 12.0625 L 5.246094 12.058594 L 5.222656 12.050781 L 5.195312 12.042969 L 5.171875 12.03125 L 5.148438 12.023438 L 5.125 12.011719 L 5.097656 12 L 5.074219 11.988281 L 5.050781 11.972656 L 5.027344 11.960938 L 5.007812 11.945312 L 4.960938 11.914062 L 4.9375 11.894531 L 4.917969 11.878906 L 4.875 11.839844 L 4.816406 11.78125 L 4.738281 11.6875 L 4.722656 11.664062 L 4.703125 11.640625 L 4.6875 11.613281 L 4.671875 11.589844 L 4.59375 11.453125 L 4.582031 11.421875 L 4.566406 11.394531 L 4.507812 11.238281 L 4.488281 11.175781 L 4.480469 11.140625 L 4.472656 11.109375 L 4.457031 11.042969 L 4.449219 11.007812 L 4.4375 10.9375 L 4.429688 10.867188 L 4.425781 10.828125 L 4.421875 10.757812 L 4.417969 10.722656 L 4.417969 10.574219 L 4.421875 10.535156 L 4.425781 10.464844 L 4.429688 10.425781 L 4.4375 10.355469 L 4.445312 10.324219 L 4.457031 10.253906 L 4.472656 10.183594 L 4.480469 10.152344 L 4.488281 10.117188 L 4.5 10.085938 L 4.507812 10.054688 L 4.566406 9.898438 L 4.609375 9.8125 L 4.671875 9.703125 L 4.6875 9.679688 L 4.703125 9.652344 L 4.722656 9.628906 L 4.738281 9.605469 L 4.796875 9.535156 L 4.835938 9.492188 L 4.894531 9.433594 L 4.9375 9.398438 L 4.960938 9.382812 L 4.984375 9.363281 L 5.027344 9.335938 L 5.050781 9.320312 L 5.097656 9.296875 L 5.125 9.285156 L 5.171875 9.261719 L 5.195312 9.253906 L 5.222656 9.246094 L 5.246094 9.234375 L 5.273438 9.230469 L 5.296875 9.222656 L 5.324219 9.21875 L 5.375 9.210938 L 5.402344 9.210938 L 5.429688 9.207031 Z M 2.75 2.699219 L 2.726562 2.765625 L 2.691406 2.894531 L 2.671875 2.960938 L 2.65625 3.027344 L 2.640625 3.089844 L 2.621094 3.15625 L 2.609375 3.21875 L 2.59375 3.285156 L 2.578125 3.347656 L 2.542969 3.535156 L 2.53125 3.59375 L 2.523438 3.65625 L 2.511719 3.714844 L 2.503906 3.777344 L 2.496094 3.832031 L 2.484375 3.890625 L 2.480469 3.949219 L 2.464844 4.0625 L 2.460938 4.117188 L 2.453125 4.171875 L 2.449219 4.226562 L 2.445312 4.277344 L 2.441406 4.332031 L 2.433594 4.433594 L 2.429688 4.53125 L 2.429688 4.578125 L 2.425781 4.625 L 2.425781 4.953125 L 2.429688 4.992188 L 2.429688 5.027344 L 2.433594 5.058594 L 2.433594 5.089844 L 2.4375 5.121094 L 2.4375 5.152344 L 2.441406 5.179688 L 2.445312 5.203125 L 2.449219 5.230469 L 2.449219 5.25 L 2.453125 5.273438 L 2.453125 5.292969 L 2.460938 5.324219 L 2.523438 5.65625 L 2.277344 5.929688 L 2.246094 5.960938 L 2.214844 5.996094 L 2.1875 6.03125 L 2.15625 6.0625 L 2.046875 6.203125 L 1.96875 6.304688 L 1.945312 6.339844 L 1.917969 6.378906 L 1.847656 6.484375 L 1.800781 6.558594 L 1.78125 6.59375 L 1.757812 6.632812 L 1.738281 6.667969 L 1.71875 6.707031 L 1.699219 6.742188 L 1.675781 6.78125 L 1.660156 6.820312 L 1.621094 6.898438 L 1.605469 6.9375 L 1.585938 6.976562 L 1.570312 7.015625 L 1.535156 7.097656 L 1.519531 7.136719 L 1.503906 7.179688 L 1.492188 7.21875 L 1.460938 7.304688 L 1.390625 7.5625 L 1.378906 7.609375 L 1.371094 7.65625 L 1.359375 7.699219 L 1.34375 7.792969 L 1.328125 7.890625 L 1.320312 7.9375 L 1.316406 7.984375 L 1.300781 8.085938 L 1.296875 8.136719 L 1.292969 8.183594 L 1.289062 8.238281 L 1.289062 8.289062 L 1.285156 8.339844 L 1.28125 8.394531 L 1.28125 8.742188 L 1.285156 8.804688 L 1.285156 8.867188 L 1.289062 8.984375 L 1.292969 9.046875 L 1.300781 9.164062 L 1.304688 9.21875 L 1.324219 9.445312 L 1.328125 9.5 L 1.34375 9.609375 L 1.351562 9.660156 L 1.371094 9.820312 L 1.382812 9.871094 L 1.40625 10.019531 L 1.417969 10.070312 L 1.4375 10.167969 L 1.449219 10.214844 L 1.46875 10.308594 L 1.503906 10.449219 L 1.515625 10.492188 L 1.527344 10.539062 L 1.542969 10.582031 L 1.554688 10.625 L 1.570312 10.667969 L 1.597656 10.753906 L 1.625 10.835938 L 1.640625 10.878906 L 1.652344 10.917969 L 1.683594 10.996094 L 1.699219 11.039062 L 1.714844 11.078125 L 1.730469 11.113281 L 1.746094 11.152344 L 1.765625 11.191406 L 1.78125 11.226562 L 1.796875 11.265625 L 1.816406 11.300781 L 1.832031 11.335938 L 1.867188 11.40625 L 1.886719 11.441406 L 1.902344 11.476562 L 1.960938 11.578125 L 1.996094 11.644531 L 2.039062 11.707031 L 2.136719 11.863281 L 2.160156 11.890625 L 2.199219 11.953125 L 2.222656 11.980469 L 2.242188 12.007812 L 2.246094 12.011719 L 2.242188 12.007812 L 2.207031 11.914062 L 2.199219 11.886719 L 2.175781 11.824219 L 2.167969 11.792969 L 2.15625 11.761719 L 2.140625 11.699219 L 2.128906 11.664062 L 2.105469 11.570312 L 2.097656 11.535156 L 2.050781 11.335938 L 2.042969 11.269531 L 2.019531 11.132812 L 2.011719 11.0625 L 2 10.988281 L 1.992188 10.917969 L 1.988281 10.847656 L 1.972656 10.550781 L 1.96875 10.398438 L 1.96875 10.359375 L 1.972656 10.238281 L 1.980469 10.117188 L 1.996094 9.960938 L 2.003906 9.921875 L 2.007812 9.882812 L 2.015625 9.839844 L 2.0625 9.605469 L 2.074219 9.566406 L 2.085938 9.523438 L 2.117188 9.410156 L 2.132812 9.371094 L 2.144531 9.332031 L 2.160156 9.292969 L 2.171875 9.253906 L 2.1875 9.214844 L 2.203125 9.179688 L 2.234375 9.101562 L 2.289062 8.988281 L 2.304688 8.953125 L 2.328125 8.917969 L 2.34375 8.878906 L 2.367188 8.84375 L 2.386719 8.804688 L 2.40625 8.769531 L 2.5 8.628906 L 2.523438 8.589844 L 2.546875 8.554688 L 2.574219 8.523438 L 2.597656 8.488281 L 2.652344 8.421875 L 2.707031 8.351562 L 2.734375 8.320312 L 2.765625 8.285156 L 2.855469 8.1875 L 2.980469 8.0625 L 3.015625 8.03125 L 3.140625 7.921875 L 3.207031 7.871094 L 3.242188 7.847656 L 3.273438 7.824219 L 3.34375 7.777344 L 3.378906 7.757812 L 3.414062 7.734375 L 3.554688 7.65625 L 3.664062 7.605469 L 3.734375 7.574219 L 3.773438 7.558594 L 3.808594 7.542969 L 3.847656 7.527344 L 3.882812 7.515625 L 3.957031 7.488281 L 4.070312 7.457031 L 4.109375 7.445312 L 4.148438 7.4375 L 4.261719 7.410156 L 4.296875 7.402344 L 4.414062 7.378906 L 4.449219 7.375 L 4.488281 7.367188 L 4.527344 7.363281 L 4.566406 7.355469 L 4.605469 7.351562 L 4.679688 7.34375 L 4.835938 7.328125 L 4.914062 7.324219 L 5.066406 7.316406 L 5.222656 7.3125 L 5.457031 7.3125 L 5.695312 7.320312 L 5.929688 7.332031 L 6.011719 7.335938 L 6.089844 7.339844 L 6.171875 7.347656 L 6.332031 7.359375 L 6.65625 7.378906 L 6.984375 7.402344 L 7.230469 7.417969 L 7.5625 7.433594 L 7.644531 7.433594 L 7.726562 7.4375 L 8.191406 7.4375 L 8.355469 7.433594 L 8.4375 7.433594 L 8.605469 7.425781 L 8.769531 7.417969 L 8.933594 7.40625 L 9.015625 7.402344 L 9.34375 7.378906 L 9.667969 7.359375 L 9.828125 7.347656 L 9.910156 7.339844 L 9.988281 7.335938 L 10.070312 7.332031 L 10.226562 7.324219 L 10.308594 7.320312 L 10.542969 7.3125 L 10.777344 7.3125 L 10.855469 7.316406 L 10.933594 7.316406 L 11.011719 7.320312 L 11.085938 7.324219 L 11.128906 7.328125 L 11.167969 7.328125 L 11.203125 7.332031 L 11.359375 7.347656 L 11.472656 7.363281 L 11.511719 7.367188 L 11.550781 7.375 L 11.585938 7.378906 L 11.703125 7.402344 L 11.738281 7.410156 L 11.816406 7.425781 L 11.855469 7.4375 L 11.929688 7.457031 L 12.042969 7.488281 L 12.117188 7.515625 L 12.152344 7.527344 L 12.191406 7.542969 L 12.226562 7.558594 L 12.265625 7.574219 L 12.300781 7.589844 L 12.375 7.621094 L 12.410156 7.640625 L 12.445312 7.65625 L 12.585938 7.734375 L 12.621094 7.757812 L 12.65625 7.777344 L 12.726562 7.824219 L 12.757812 7.847656 L 12.792969 7.871094 L 12.824219 7.898438 L 12.859375 7.921875 L 12.984375 8.03125 L 13.019531 8.0625 L 13.144531 8.1875 L 13.175781 8.222656 L 13.207031 8.253906 L 13.265625 8.320312 L 13.292969 8.351562 L 13.375 8.453125 L 13.402344 8.488281 L 13.425781 8.523438 L 13.453125 8.554688 L 13.476562 8.589844 L 13.5 8.628906 L 13.59375 8.769531 L 13.636719 8.84375 L 13.65625 8.878906 L 13.675781 8.917969 L 13.695312 8.953125 L 13.710938 8.988281 L 13.765625 9.101562 L 13.796875 9.179688 L 13.8125 9.214844 L 13.828125 9.253906 L 13.839844 9.292969 L 13.867188 9.371094 L 13.882812 9.410156 L 13.914062 9.523438 L 13.925781 9.566406 L 13.9375 9.605469 L 13.984375 9.839844 L 13.992188 9.882812 L 13.996094 9.921875 L 14.003906 9.960938 L 14.019531 10.117188 L 14.027344 10.238281 L 14.03125 10.359375 L 14.03125 10.476562 L 14.023438 10.625 L 14.023438 10.699219 L 14.015625 10.773438 L 14.011719 10.847656 L 14.007812 10.917969 L 13.984375 11.128906 L 13.972656 11.199219 L 13.960938 11.265625 L 13.949219 11.335938 L 13.9375 11.402344 L 13.90625 11.535156 L 13.890625 11.597656 L 13.875 11.664062 L 13.855469 11.726562 L 13.847656 11.757812 L 13.804688 11.882812 L 13.796875 11.914062 L 13.785156 11.941406 L 13.773438 11.972656 L 13.765625 12 L 13.777344 11.980469 L 13.800781 11.953125 L 13.839844 11.890625 L 13.863281 11.863281 L 13.960938 11.707031 L 14.003906 11.644531 L 14.039062 11.578125 L 14.097656 11.476562 L 14.113281 11.441406 L 14.132812 11.40625 L 14.167969 11.335938 L 14.183594 11.300781 L 14.203125 11.265625 L 14.21875 11.226562 L 14.234375 11.191406 L 14.253906 11.152344 L 14.269531 11.113281 L 14.285156 11.078125 L 14.300781 11.039062 L 14.316406 10.996094 L 14.347656 10.917969 L 14.359375 10.878906 L 14.375 10.835938 L 14.402344 10.753906 L 14.429688 10.667969 L 14.445312 10.625 L 14.457031 10.582031 L 14.472656 10.539062 L 14.484375 10.492188 L 14.496094 10.449219 L 14.53125 10.308594 L 14.550781 10.214844 L 14.5625 10.167969 L 14.582031 10.070312 L 14.59375 10.019531 L 14.617188 9.871094 L 14.628906 9.820312 L 14.648438 9.660156 L 14.65625 9.609375 L 14.671875 9.5 L 14.675781 9.445312 L 14.695312 9.21875 L 14.699219 9.164062 L 14.707031 9.046875 L 14.710938 8.984375 L 14.714844 8.867188 L 14.714844 8.804688 L 14.71875 8.742188 L 14.71875 8.394531 L 14.714844 8.339844 L 14.710938 8.289062 L 14.710938 8.238281 L 14.707031 8.183594 L 14.703125 8.136719 L 14.699219 8.085938 L 14.683594 7.984375 L 14.679688 7.9375 L 14.671875 7.890625 L 14.65625 7.792969 L 14.640625 7.699219 L 14.628906 7.65625 L 14.621094 7.609375 L 14.609375 7.5625 L 14.539062 7.304688 L 14.507812 7.21875 L 14.496094 7.179688 L 14.480469 7.136719 L 14.464844 7.097656 L 14.429688 7.015625 L 14.414062 6.976562 L 14.394531 6.9375 L 14.378906 6.898438 L 14.339844 6.820312 L 14.324219 6.78125 L 14.300781 6.742188 L 14.28125 6.707031 L 14.261719 6.667969 L 14.242188 6.632812 L 14.21875 6.59375 L 14.199219 6.558594 L 14.152344 6.484375 L 14.082031 6.378906 L 14.054688 6.339844 L 14.03125 6.304688 L 13.953125 6.203125 L 13.84375 6.0625 L 13.8125 6.03125 L 13.785156 5.996094 L 13.753906 5.960938 L 13.722656 5.929688 L 13.476562 5.65625 L 13.539062 5.324219 L 13.542969 5.3125 L 13.542969 5.296875 L 13.546875 5.28125 L 13.546875 5.261719 L 13.554688 5.214844 L 13.558594 5.164062 L 13.5625 5.136719 L 13.5625 5.105469 L 13.566406 5.074219 L 13.566406 5.042969 L 13.570312 5.007812 L 13.570312 4.894531 L 13.574219 4.855469 L 13.574219 4.730469 L 13.570312 4.683594 L 13.570312 4.59375 L 13.566406 4.546875 L 13.566406 4.496094 L 13.550781 4.292969 L 13.539062 4.128906 L 13.53125 4.074219 L 13.523438 4.015625 L 13.519531 3.960938 L 13.503906 3.84375 L 13.484375 3.722656 L 13.476562 3.664062 L 13.453125 3.539062 L 13.445312 3.476562 L 13.429688 3.414062 L 13.417969 3.351562 L 13.390625 3.222656 L 13.375 3.160156 L 13.328125 2.964844 L 13.308594 2.898438 L 13.292969 2.832031 L 13.269531 2.765625 L 13.25 2.699219 L 13.242188 2.671875 L 13.21875 2.675781 L 13.175781 2.691406 L 13.128906 2.703125 L 13.082031 2.71875 L 12.980469 2.753906 L 12.929688 2.769531 L 12.820312 2.808594 L 12.703125 2.855469 L 12.515625 2.925781 L 12.453125 2.953125 L 12.386719 2.984375 L 12.316406 3.011719 L 12.246094 3.042969 L 12.175781 3.078125 L 12.105469 3.109375 L 12.03125 3.144531 L 11.953125 3.179688 L 11.800781 3.257812 L 11.722656 3.300781 L 11.476562 3.429688 L 11.390625 3.480469 L 11.304688 3.527344 L 11.21875 3.578125 L 11.128906 3.628906 L 11.039062 3.683594 L 10.855469 3.796875 L 10.761719 3.855469 L 10.574219 3.980469 L 10.523438 4.011719 L 10.476562 4.046875 L 10.425781 4.078125 L 10.136719 4.277344 L 9.8125 4.191406 L 9.777344 4.183594 L 9.738281 4.171875 L 9.699219 4.164062 L 9.65625 4.15625 L 9.609375 4.148438 L 9.566406 4.140625 L 9.414062 4.117188 L 9.304688 4.101562 L 9.246094 4.097656 L 9.128906 4.082031 L 9.070312 4.078125 L 9.007812 4.074219 L 8.945312 4.066406 L 8.882812 4.0625 L 8.550781 4.042969 L 8.417969 4.039062 L 8.347656 4.039062 L 8.277344 4.035156 L 8.070312 4.035156 L 8 4.03125 L 7.929688 4.035156 L 7.722656 4.035156 L 7.652344 4.039062 L 7.582031 4.039062 L 7.449219 4.042969 L 7.117188 4.0625 L 7.054688 4.066406 L 6.992188 4.074219 L 6.929688 4.078125 L 6.871094 4.082031 L 6.753906 4.097656 L 6.695312 4.101562 L 6.585938 4.117188 L 6.433594 4.140625 L 6.390625 4.148438 L 6.34375 4.15625 L 6.300781 4.164062 L 6.261719 4.171875 L 6.222656 4.183594 L 6.1875 4.191406 L 5.863281 4.277344 L 5.574219 4.078125 L 5.523438 4.042969 L 5.476562 4.011719 L 5.425781 3.980469 L 5.238281 3.855469 L 5.050781 3.738281 L 4.871094 3.628906 L 4.78125 3.578125 L 4.695312 3.527344 L 4.609375 3.480469 L 4.523438 3.429688 L 4.277344 3.300781 L 4.199219 3.257812 L 4.121094 3.21875 L 4.046875 3.179688 L 3.96875 3.144531 L 3.894531 3.109375 L 3.824219 3.078125 L 3.753906 3.042969 L 3.683594 3.011719 L 3.613281 2.984375 L 3.546875 2.953125 L 3.484375 2.925781 L 3.296875 2.855469 L 3.179688 2.808594 L 3.070312 2.769531 L 3.019531 2.753906 L 2.917969 2.71875 L 2.871094 2.703125 L 2.78125 2.675781 L 2.757812 2.671875 Z M 5.453125 9.847656 L 5.4375 9.847656 L 5.433594 9.851562 L 5.429688 9.851562 L 5.417969 9.855469 L 5.410156 9.855469 L 5.40625 9.859375 L 5.402344 9.859375 L 5.394531 9.863281 L 5.382812 9.871094 L 5.367188 9.878906 L 5.347656 9.890625 L 5.335938 9.898438 L 5.277344 9.957031 L 5.257812 9.980469 L 5.25 9.992188 L 5.238281 10.003906 L 5.230469 10.015625 L 5.222656 10.03125 L 5.210938 10.046875 L 5.203125 10.058594 L 5.195312 10.074219 L 5.175781 10.105469 L 5.171875 10.121094 L 5.160156 10.140625 L 5.152344 10.15625 L 5.132812 10.214844 L 5.109375 10.273438 L 5.105469 10.296875 L 5.097656 10.316406 L 5.09375 10.335938 L 5.089844 10.359375 L 5.078125 10.402344 L 5.066406 10.472656 L 5.066406 10.496094 L 5.0625 10.523438 L 5.0625 10.546875 L 5.058594 10.570312 L 5.058594 10.722656 L 5.0625 10.746094 L 5.0625 10.769531 L 5.066406 10.796875 L 5.066406 10.820312 L 5.078125 10.890625 L 5.09375 10.957031 L 5.097656 10.980469 L 5.105469 11 L 5.109375 11.019531 L 5.117188 11.042969 L 5.132812 11.082031 L 5.144531 11.117188 L 5.160156 11.152344 L 5.179688 11.1875 L 5.210938 11.25 L 5.222656 11.265625 L 5.238281 11.289062 L 5.25 11.300781 L 5.257812 11.316406 L 5.265625 11.328125 L 5.277344 11.335938 L 5.285156 11.347656 L 5.296875 11.355469 L 5.3125 11.375 L 5.328125 11.390625 L 5.335938 11.394531 L 5.347656 11.402344 L 5.355469 11.40625 L 5.367188 11.417969 L 5.390625 11.429688 L 5.402344 11.433594 L 5.417969 11.441406 L 5.421875 11.441406 L 5.425781 11.445312 L 5.484375 11.445312 L 5.503906 11.4375 L 5.511719 11.433594 L 5.523438 11.429688 L 5.546875 11.417969 L 5.558594 11.40625 L 5.566406 11.402344 L 5.578125 11.394531 L 5.582031 11.390625 L 5.601562 11.375 L 5.617188 11.355469 L 5.65625 11.316406 L 5.664062 11.300781 L 5.671875 11.289062 L 5.683594 11.277344 L 5.691406 11.265625 L 5.703125 11.25 L 5.742188 11.171875 L 5.753906 11.152344 L 5.761719 11.136719 L 5.765625 11.117188 L 5.777344 11.101562 L 5.78125 11.082031 L 5.796875 11.042969 L 5.804688 11.019531 L 5.808594 11 L 5.816406 10.980469 L 5.824219 10.933594 L 5.835938 10.890625 L 5.847656 10.820312 L 5.847656 10.796875 L 5.851562 10.769531 L 5.851562 10.746094 L 5.855469 10.722656 L 5.855469 10.671875 L 5.859375 10.648438 L 5.855469 10.621094 L 5.855469 10.570312 L 5.851562 10.546875 L 5.851562 10.523438 L 5.847656 10.5 L 5.847656 10.472656 L 5.835938 10.402344 L 5.824219 10.359375 L 5.816406 10.316406 L 5.808594 10.296875 L 5.804688 10.273438 L 5.78125 10.214844 L 5.777344 10.195312 L 5.765625 10.175781 L 5.761719 10.15625 L 5.753906 10.140625 L 5.742188 10.121094 L 5.710938 10.058594 L 5.703125 10.046875 L 5.691406 10.03125 L 5.671875 10.003906 L 5.664062 9.992188 L 5.644531 9.96875 L 5.636719 9.957031 L 5.601562 9.921875 L 5.582031 9.90625 L 5.578125 9.898438 L 5.566406 9.890625 L 5.546875 9.878906 L 5.53125 9.871094 L 5.519531 9.863281 L 5.511719 9.859375 L 5.507812 9.859375 L 5.496094 9.855469 L 5.492188 9.851562 L 5.480469 9.851562 L 5.472656 9.847656 Z M 10.539062 9.847656 L 10.527344 9.847656 L 10.523438 9.851562 L 10.507812 9.851562 L 10.503906 9.855469 L 10.496094 9.855469 L 10.492188 9.859375 L 10.488281 9.859375 L 10.480469 9.863281 L 10.46875 9.871094 L 10.453125 9.878906 L 10.433594 9.890625 L 10.421875 9.898438 L 10.417969 9.90625 L 10.398438 9.921875 L 10.363281 9.957031 L 10.355469 9.96875 L 10.34375 9.980469 L 10.328125 10.003906 L 10.308594 10.03125 L 10.296875 10.046875 L 10.289062 10.058594 L 10.257812 10.121094 L 10.246094 10.140625 L 10.238281 10.15625 L 10.234375 10.175781 L 10.222656 10.195312 L 10.21875 10.214844 L 10.195312 10.273438 L 10.191406 10.296875 L 10.183594 10.316406 L 10.175781 10.359375 L 10.164062 10.402344 L 10.152344 10.472656 L 10.152344 10.496094 L 10.148438 10.523438 L 10.148438 10.546875 L 10.144531 10.570312 L 10.144531 10.621094 L 10.140625 10.648438 L 10.144531 10.671875 L 10.144531 10.722656 L 10.148438 10.746094 L 10.148438 10.769531 L 10.152344 10.796875 L 10.152344 10.820312 L 10.164062 10.890625 L 10.175781 10.933594 L 10.183594 10.980469 L 10.191406 11 L 10.195312 11.019531 L 10.203125 11.042969 L 10.210938 11.0625 L 10.21875 11.078125 L 10.222656 11.101562 L 10.234375 11.117188 L 10.238281 11.136719 L 10.246094 11.152344 L 10.257812 11.171875 L 10.296875 11.25 L 10.308594 11.265625 L 10.316406 11.277344 L 10.328125 11.289062 L 10.335938 11.300781 L 10.34375 11.316406 L 10.382812 11.355469 L 10.398438 11.375 L 10.417969 11.390625 L 10.421875 11.394531 L 10.433594 11.402344 L 10.441406 11.40625 L 10.453125 11.417969 L 10.476562 11.429688 L 10.488281 11.433594 L 10.492188 11.4375 L 10.5 11.4375 L 10.507812 11.441406 L 10.511719 11.441406 L 10.523438 11.445312 L 10.574219 11.445312 L 10.578125 11.441406 L 10.582031 11.441406 L 10.597656 11.433594 L 10.609375 11.429688 L 10.632812 11.417969 L 10.644531 11.40625 L 10.652344 11.402344 L 10.664062 11.394531 L 10.671875 11.390625 L 10.6875 11.375 L 10.703125 11.355469 L 10.714844 11.347656 L 10.722656 11.335938 L 10.734375 11.328125 L 10.742188 11.316406 L 10.75 11.300781 L 10.761719 11.289062 L 10.777344 11.265625 L 10.789062 11.25 L 10.820312 11.1875 L 10.839844 11.152344 L 10.855469 11.117188 L 10.867188 11.082031 L 10.882812 11.042969 L 10.890625 11.019531 L 10.894531 11 L 10.902344 10.980469 L 10.90625 10.957031 L 10.921875 10.890625 L 10.933594 10.820312 L 10.933594 10.796875 L 10.9375 10.769531 L 10.9375 10.746094 L 10.941406 10.722656 L 10.941406 10.546875 L 10.9375 10.523438 L 10.933594 10.496094 L 10.933594 10.472656 L 10.921875 10.402344 L 10.917969 10.382812 L 10.914062 10.359375 L 10.90625 10.335938 L 10.902344 10.316406 L 10.894531 10.296875 L 10.890625 10.273438 L 10.859375 10.195312 L 10.855469 10.175781 L 10.847656 10.15625 L 10.839844 10.140625 L 10.828125 10.121094 L 10.824219 10.105469 L 10.804688 10.074219 L 10.796875 10.058594 L 10.789062 10.046875 L 10.777344 10.03125 L 10.769531 10.015625 L 10.761719 10.003906 L 10.75 9.992188 L 10.742188 9.980469 L 10.722656 9.957031 L 10.664062 9.898438 L 10.652344 9.890625 L 10.632812 9.878906 L 10.617188 9.871094 L 10.605469 9.863281 L 10.597656 9.859375 L 10.59375 9.859375 L 10.589844 9.855469 L 10.582031 9.855469 L 10.570312 9.851562 L 10.566406 9.851562 L 10.5625 9.847656 Z M 10.539062 9.847656 "/>
</g>
</svg>
