<?xml version="1.0" encoding="UTF-8"?>
<svg xmlns="http://www.w3.org/2000/svg" xmlns:xlink="http://www.w3.org/1999/xlink" width="32pt" height="32pt" viewBox="0 0 32 32" version="1.1">
<g id="surface10595">
<path style=" stroke:none;fill-rule:nonzero;fill:rgb(0%,0%,0%);fill-opacity:1;" d="M 5.441406 14.398438 L 26.558594 14.398438 L 26.558594 17.601562 L 5.441406 17.601562 Z M 5.441406 21.761719 L 26.558594 21.761719 L 26.558594 24.960938 L 5.441406 24.960938 Z M 5.441406 7.039062 L 26.558594 7.039062 L 26.558594 10.238281 L 5.441406 10.238281 Z M 5.441406 7.039062 "/>
<path style=" stroke:none;fill-rule:nonzero;fill:rgb(100%,100%,100%);fill-opacity:1;" d="M 26.558594 17.921875 L 5.441406 17.921875 C 5.261719 17.921875 5.121094 17.777344 5.121094 17.601562 L 5.121094 14.398438 C 5.121094 14.222656 5.261719 14.078125 5.441406 14.078125 L 26.558594 14.078125 C 26.738281 14.078125 26.878906 14.222656 26.878906 14.398438 L 26.878906 17.601562 C 26.878906 17.777344 26.738281 17.921875 26.558594 17.921875 Z M 5.761719 17.28125 L 26.238281 17.28125 L 26.238281 14.71875 L 5.761719 14.71875 Z M 26.558594 25.28125 L 5.441406 25.28125 C 5.261719 25.28125 5.121094 25.136719 5.121094 24.960938 L 5.121094 21.761719 C 5.121094 21.582031 5.261719 21.441406 5.441406 21.441406 L 26.558594 21.441406 C 26.738281 21.441406 26.878906 21.582031 26.878906 21.761719 L 26.878906 24.960938 C 26.878906 25.136719 26.738281 25.28125 26.558594 25.28125 Z M 5.761719 24.640625 L 26.238281 24.640625 L 26.238281 22.078125 L 5.761719 22.078125 Z M 26.558594 10.558594 L 5.441406 10.558594 C 5.261719 10.558594 5.121094 10.417969 5.121094 10.238281 L 5.121094 7.039062 C 5.121094 6.863281 5.261719 6.71875 5.441406 6.71875 L 26.558594 6.71875 C 26.738281 6.71875 26.878906 6.863281 26.878906 7.039062 L 26.878906 10.238281 C 26.878906 10.417969 26.738281 10.558594 26.558594 10.558594 Z M 5.761719 9.921875 L 26.238281 9.921875 L 26.238281 7.359375 L 5.761719 7.359375 Z M 5.761719 9.921875 "/>
<path style=" stroke:none;fill-rule:nonzero;fill:rgb(100%,100%,100%);fill-opacity:1;" d="M 23.519531 9.28125 L 5.441406 9.28125 C 5.351562 9.28125 5.28125 9.207031 5.28125 9.121094 C 5.28125 9.03125 5.351562 8.960938 5.441406 8.960938 L 23.519531 8.960938 C 23.609375 8.960938 23.679688 9.03125 23.679688 9.121094 C 23.679688 9.207031 23.609375 9.28125 23.519531 9.28125 Z M 25.121094 9.28125 L 24.480469 9.28125 C 24.390625 9.28125 24.320312 9.207031 24.320312 9.121094 C 24.320312 9.03125 24.390625 8.960938 24.480469 8.960938 L 25.121094 8.960938 C 25.207031 8.960938 25.28125 9.03125 25.28125 9.121094 C 25.28125 9.207031 25.207031 9.28125 25.121094 9.28125 Z M 26.398438 24 L 8.480469 24 C 8.390625 24 8.320312 23.929688 8.320312 23.839844 C 8.320312 23.75 8.390625 23.679688 8.480469 23.679688 L 26.398438 23.679688 C 26.488281 23.679688 26.558594 23.75 26.558594 23.839844 C 26.558594 23.929688 26.488281 24 26.398438 24 Z M 7.519531 24 L 6.878906 24 C 6.792969 24 6.71875 23.929688 6.71875 23.839844 C 6.71875 23.75 6.792969 23.679688 6.878906 23.679688 L 7.519531 23.679688 C 7.609375 23.679688 7.679688 23.75 7.679688 23.839844 C 7.679688 23.929688 7.609375 24 7.519531 24 Z M 21.601562 16.640625 L 7.199219 16.640625 C 7.113281 16.640625 7.039062 16.566406 7.039062 16.480469 C 7.039062 16.390625 7.113281 16.320312 7.199219 16.320312 L 21.601562 16.320312 C 21.6875 16.320312 21.761719 16.390625 21.761719 16.480469 C 21.761719 16.566406 21.6875 16.640625 21.601562 16.640625 Z M 25.121094 16.640625 L 24.480469 16.640625 C 24.390625 16.640625 24.320312 16.566406 24.320312 16.480469 C 24.320312 16.390625 24.390625 16.320312 24.480469 16.320312 L 25.121094 16.320312 C 25.207031 16.320312 25.28125 16.390625 25.28125 16.480469 C 25.28125 16.566406 25.207031 16.640625 25.121094 16.640625 Z M 23.519531 16.640625 L 22.558594 16.640625 C 22.472656 16.640625 22.398438 16.566406 22.398438 16.480469 C 22.398438 16.390625 22.472656 16.320312 22.558594 16.320312 L 23.519531 16.320312 C 23.609375 16.320312 23.679688 16.390625 23.679688 16.480469 C 23.679688 16.566406 23.609375 16.640625 23.519531 16.640625 Z M 23.519531 16.640625 "/>
</g>
</svg>
